<svg class="svg-icon" style="width: 1em; height: 1em;vertical-align: middle;fill: currentColor;overflow: hidden;" viewBox="0 0 1024 1024" version="1.1" xmlns="http://www.w3.org/2000/svg"><path d="M276.034 86.02v339.002h472.118V86.02H276.034z m457.162 324.046H290.99V100.976h442.206v309.09z" fill="#4A555F" /><path d="M308.438 118.422h407.308v274.194H308.438z" fill="#F58E6F" /><path d="M544.938 8.216h-65.69c-24.408 0-44.266 19.858-44.266 44.266v48.492h154.224V52.482c-0.002-24.408-19.86-44.266-44.268-44.266z m29.31 77.804h-124.312V52.482c0-16.162 13.15-29.312 29.31-29.312h65.69c16.162 0 29.312 13.15 29.312 29.312V86.02zM330.6 62.954v38.02h65.998v-38.02H330.6z m51.042 23.066h-36.086v-8.108h36.086v8.108zM627.59 62.954v38.02h65.994v-38.02h-65.994z m51.038 23.066h-36.082v-8.108h36.082v8.108zM276.034 676.782v339.002h472.118V676.782H276.034z m457.162 324.046H290.99V691.738h442.206v309.09z" fill="#4A555F" /><path d="M308.438 709.186h407.308V983.38H308.438z" fill="#F58E6F" /><path d="M544.938 598.978h-65.69c-24.408 0-44.266 19.858-44.266 44.268v48.492h154.224v-48.492c-0.002-24.41-19.86-44.268-44.268-44.268z m29.31 77.804h-124.312v-33.536c0-16.162 13.15-29.312 29.31-29.312h65.69c16.162 0 29.312 13.15 29.312 29.312v33.536zM330.6 653.716v38.02h65.998v-38.02H330.6z m51.042 23.066h-36.086v-8.108h36.086v8.108zM627.59 653.716v38.02h65.994v-38.02h-65.994z m51.038 23.066h-36.082v-8.108h36.082v8.108zM925.194 205.666h-123.042v99.708h122.14v491.056h-27.36v-60.556l-124.052 110.41 124.052 110.414v-60.562h28.262c54.48 0 98.806-44.322 98.806-98.804V304.468c0-54.478-44.326-98.802-98.806-98.802z m83.85 591.666c0 46.234-37.614 83.848-83.85 83.848h-43.218v42.184l-86.598-77.08 86.598-77.076v42.178h43.218c7.75 0 14.056-6.304 14.056-14.054V304.468c0-7.748-6.304-14.05-14.056-14.05h-108.086v-69.794h108.086c46.236 0 83.85 37.614 83.85 83.846v492.862z" fill="#4A555F" /><path d="M925.194 238.07h-90.638v34.898h90.638c17.37 0 31.504 14.13 31.504 31.502v492.862c0 17.37-14.132 31.502-31.504 31.502h-60.666v-20.74l-42.906 38.188 42.906 38.19v-20.742h60.666c36.614 0 66.4-29.786 66.4-66.398V304.47c0-36.614-29.786-66.4-66.4-66.4z" fill="#FFD452" /><path d="M99.708 306.852h27.36v60.556l124.052-110.41-124.052-110.414v60.562H98.806C44.326 207.144 0 251.468 0 305.948v492.862c0 54.48 44.326 98.804 98.806 98.804h123.042v-99.706h-122.14V306.852z m107.184 506.012v69.794H98.806c-46.236 0-83.85-37.614-83.85-83.848V305.948c0-46.234 37.614-83.848 83.85-83.848h43.218V179.918l86.598 77.08-86.598 77.076v-42.178H98.806c-7.75 0-14.056 6.304-14.056 14.052v492.862c0 7.748 6.304 14.054 14.056 14.054h108.086z" fill="#4A555F" /><path d="M67.302 798.81V305.948c0-17.372 14.134-31.502 31.504-31.502h60.666v20.74l42.906-38.188-42.906-38.19v20.742H98.806c-36.614 0-66.4 29.786-66.4 66.4v492.862c0 36.614 29.788 66.4 66.4 66.4h90.638v-34.898H98.806c-17.37-0.002-31.504-14.132-31.504-31.504z" fill="#FFD452" /></svg>