<svg viewBox="0 0 188.6 25.1" xmlns="http://www.w3.org/2000/svg">
  <g fill="#00c0e8">
    <path d="M13.9,16.8h4.6c-0.6,4.9-4.1,8.2-9,8.2C4.1,25,0,20.9,0,15.2c0-5.7,4.1-9.9,9.5-9.9c4.9,0,8.4,3.3,9,8.2h-4.6c-0.5-2.4-2.1-3.8-4.4-3.8c-2.9,0-5,2.3-5,5.5c0,3.2,2,5.5,5,5.5C11.8,20.6,13.4,19.1,13.9,16.8z"/>
    <path d="M32,21.5h-7.6l-1.2,3.3h-4.7l7.6-19h4.3l7.6,19h-4.7L32,21.5z M30.6,17.6l-2.3-6.4l-2.3,6.4H30.6z"/>
    <path d="M51.1,24.8l-3.4-5.5h0h-3.4v5.5h-4.5v-19h7.8c4.5,0,7.4,2.6,7.4,6.7c0,2.5-1.1,4.5-3,5.7l4.2,6.7H51.1zM44.3,15h3.3c1.7,0,3.1-1,3.1-2.6c0-1.5-1.3-2.5-3.1-2.5h-3.3V15z"/>
    <path d="M82.3,9.9v3.5h8v4h-8v3.3h9.1v4.1H77.9v-19h13.5v4.1H82.3z"/>
    <path d="M105.2,24.8l-3.4-5.5h0h-3.4v5.5H94v-19h7.8c4.5,0,7.4,2.6,7.4,6.7c0,2.5-1.1,4.5-3,5.7l4.2,6.7H105.2zM98.4,15h3.3c1.7,0,3.1-1,3.1-2.6c0-1.5-1.3-2.5-3.1-2.5h-3.3V15z"/>
    <path d="M126.3,10h-5.7v14.8h-4.4V10h-5.7V5.8h15.9V10z"/>
    <path d="M132.7,5.8v19h-4.5v-19H132.7z"/>
    <path d="M149.3,16.9h4.6c-0.6,4.9-4.1,8.2-9,8.2c-5.4,0-9.5-4.1-9.5-9.9c0-5.7,4.1-9.9,9.5-9.9c4.9,0,8.4,3.3,9,8.2h-4.6c-0.5-2.4-2.1-3.8-4.4-3.8c-2.9,0-5,2.3-5,5.5c0,3.2,2,5.5,5,5.5C147.3,20.7,148.9,19.3,149.3,16.9z"/>
    <path d="M167.5,21.5h-7.6l-1.2,3.3H154l7.6-19h4.3l7.6,19h-4.7L167.5,21.5z M166,17.6l-2.3-6.4l-2.3,6.4H166z"/>
    <path d="M188.6,20.5v4.2h-13.3v-19h4.5v14.8H188.6z"/>
  </g>
  <g>
    <linearGradient id="gradient" gradientUnits="userSpaceOnUse" x1="61.0663" y1="24.7541" x2="61.0663" y2="5.7724">
      <stop offset="0" style="stop-color:#e9b720"/>
      <stop offset="0.2441" style="stop-color:#edbc22"/>
      <stop offset="0.5672" style="stop-color:#f9cc2b"/>
      <stop offset="0.6989" style="stop-color:#ffd530"/>
    </linearGradient>
    <polygon fill="url(#gradient)" points="62,5.8 56,5.8 63.4,24.8 66.2,16.5"/>
    <path fill="#ffd530" d="M77.7,0c-3,0-5.9-0.2-8,5.7c0,0-1.1,3.2-1.1,3.2l-5.3,15.8h6l4.6-13.7l1.6-4.7L77.7,0z"/>
  </g>
</svg>
