<svg class="svg-icon" style="width: 1em; height: 1em;vertical-align: middle;fill: currentColor;overflow: hidden;" viewBox="0 0 1024 1024" version="1.1" xmlns="http://www.w3.org/2000/svg"><path d="M297.5 458.8h42V833h-42z"  /><path d="M679.1 854H260.7c-32.2 0-58.4-26.2-58.4-58.4V496.2c0-32.2 26.2-58.4 58.4-58.4h56.1c5.4-0.1 103.1-4.7 136.1-223.3 2.7-18.2 18-32 35.5-32l7.8-0.1c13.4 0 41.2 0 60.1 24.2 26.5 34.1 24.7 104-6.1 226.6 0.2 1.5 0.7 3.3 1.2 3.9 0.1 0.1 1.4 0.7 4.4 0.7H739c17.6 0 34 7.8 45.2 21.4 11.1 13.6 15.5 31.3 12.1 48.5L736.4 807c-5.5 27.2-29.6 47-57.3 47zM260.7 479.7c-9.1 0-16.4 7.4-16.4 16.4v299.4c0 9.1 7.4 16.4 16.4 16.4h418.4c7.8 0 14.6-5.6 16.1-13.2l59.9-299.4c1.3-6.6-1.6-11.4-3.4-13.6-1.8-2.3-5.9-6-12.7-6H555.9c-18.2 0-29.1-7.7-35.1-14.1-13.3-14.3-12.7-33-12.4-36.5l0.6-3.6c35.1-138.9 24-180.6 14.3-193.1-4.7-6-11.5-8-27-8h-2.4C456.6 464.6 341.7 479.3 319 479.7h-58.3z"  /></svg>