<svg class="svg-icon" style="width: 1em; height: 1em;vertical-align: middle;fill: currentColor;overflow: hidden;" viewBox="0 0 1024 1024" version="1.1" xmlns="http://www.w3.org/2000/svg"><path d="M218.298182 288.116364h679.098182v506.88h-679.098182z" fill="#BBEBA1" /><path d="M218.763636 290.909091a338.850909 141.963636 0 1 0 677.701819 0 338.850909 141.963636 0 1 0-677.701819 0Z" fill="#BBEBA1" /><path d="M218.763636 784.290909a338.850909 141.963636 0 1 0 677.701819 0 338.850909 141.963636 0 1 0-677.701819 0Z" fill="#BBEBA1" /><path d="M496.64 415.185455c-210.850909 0-369.570909-72.145455-369.570909-168.029091s158.72-168.029091 369.570909-168.029091c210.850909 0 369.570909 72.145455 369.570909 168.029091s-158.72 168.029091-369.570909 168.029091z m0-289.512728c-190.370909 0-323.025455 64.232727-323.025455 121.483637s132.654545 121.483636 323.025455 121.483636 323.025455-64.232727 323.025455-121.483636-132.654545-121.483636-323.025455-121.483637z" fill="#353E43" /><path d="M496.64 576.698182c-210.850909 0-369.570909-72.145455-369.570909-168.029091 0-13.032727 10.24-23.272727 23.272727-23.272727s23.272727 10.24 23.272727 23.272727c0 57.250909 132.654545 121.483636 323.025455 121.483636s323.025455-64.232727 323.025455-121.483636c0-13.032727 10.24-23.272727 23.272727-23.272727s23.272727 10.24 23.272727 23.272727c0 95.883636-158.72 168.029091-369.570909 168.029091z" fill="#353E43" /><path d="M496.64 738.210909c-210.850909 0-369.570909-72.145455-369.570909-168.029091 0-13.032727 10.24-23.272727 23.272727-23.272727s23.272727 10.24 23.272727 23.272727c0 57.250909 132.654545 121.483636 323.025455 121.483637s323.025455-64.232727 323.025455-121.483637c0-13.032727 10.24-23.272727 23.272727-23.272727s23.272727 10.24 23.272727 23.272727c0 95.883636-158.72 168.029091-369.570909 168.029091z" fill="#353E43" /><path d="M496.64 899.723636c-210.850909 0-369.570909-72.145455-369.570909-168.029091 0-13.032727 10.24-23.272727 23.272727-23.272727s23.272727 10.24 23.272727 23.272727c0 57.250909 132.654545 121.483636 323.025455 121.483637s323.025455-64.232727 323.025455-121.483637c0-13.032727 10.24-23.272727 23.272727-23.272727s23.272727 10.24 23.272727 23.272727c0 95.883636-158.72 168.029091-369.570909 168.029091z" fill="#353E43" /><path d="M150.341818 756.363636c-13.032727 0-23.272727-10.24-23.272727-23.272727V242.501818c0-13.032727 10.24-23.272727 23.272727-23.272727s23.272727 10.24 23.272727 23.272727v490.589091c0 13.032727-10.24 23.272727-23.272727 23.272727zM842.938182 756.363636c-13.032727 0-23.272727-10.24-23.272727-23.272727V242.501818c0-13.032727 10.24-23.272727 23.272727-23.272727s23.272727 10.24 23.272727 23.272727v490.589091c0 13.032727-10.24 23.272727-23.272727 23.272727z" fill="#353E43" /><path d="M494.312727 340.712727v-13.963636c-13.498182-1.396364-22.807273-3.258182-31.185454-6.050909s-15.825455-7.912727-22.341818-14.429091c-6.050909-6.516364-9.774545-14.894545-10.705455-24.203636l27.461818-3.723637c2.327273 9.774545 6.050909 17.221818 11.170909 21.876364 7.447273 6.516364 14.894545 7.912727 25.6 8.843636v-56.785454c-11.170909-1.396364-20.945455-4.189091-32.581818-8.843637-8.843636-3.258182-15.36-7.912727-20.014545-13.498182-4.654545-6.050909-6.981818-12.567273-6.981819-20.014545 0-13.032727 6.981818-23.738182 20.48-32.116364 9.309091-5.585455 20.945455-9.774545 39.098182-10.705454v-11.170909h22.807273v11.170909c15.825455 0.930909 23.738182 5.12 33.047273 10.24 12.101818 6.516364 19.083636 15.825455 21.410909 27.461818l-28.392727 2.792727c-1.396364-7.447273-5.12-13.032727-10.24-16.756363-2.327273-1.861818-7.447273-6.516364-16.29091-7.447273v53.527273c13.963636 2.327273 18.152727 4.189091 22.807273 5.585454 8.378182 2.327273 15.36 5.585455 20.945455 9.309091 5.585455 3.723636 9.309091 7.912727 12.567272 13.032727 2.792727 5.12 4.189091 10.24 4.189091 16.290909 0 13.032727-6.050909 23.738182-18.152727 32.116364-12.101818 8.378182-22.807273 13.032727-41.890909 13.963636v14.429091h-22.807273v-0.930909z m0-157.789091c-10.705455 0.930909-17.221818 4.189091-23.272727 8.843637-6.050909 4.654545-9.309091 10.24-9.309091 16.756363s2.792727 11.636364 7.912727 15.825455c5.12 4.189091 12.101818 7.447273 24.669091 10.24v-51.665455z m22.341818 126.138182c10.705455-0.930909 14.429091-1.861818 21.41091-7.447273 5.585455-4.189091 10.24-12.101818 10.24-20.014545 0-6.516364-2.327273-12.101818-7.447273-16.290909-5.12-4.189091-10.24-7.912727-24.669091-11.170909v54.923636h0.465454z" fill="#353E43" /></svg>